<mxfile host="65bd71144e">
    <diagram id="I9YTbGuVgBh3_8I0MJiJ" name="Page-1">
        <mxGraphModel dx="1985" dy="1828" grid="0" gridSize="10" guides="1" tooltips="1" connect="1" arrows="1" fold="1" page="0" pageScale="1" pageWidth="850" pageHeight="1100" math="0" shadow="0">
            <root>
                <mxCell id="0"/>
                <mxCell id="1" parent="0"/>
                <mxCell id="48" value="alt" style="shape=umlFrame;whiteSpace=wrap;html=1;" vertex="1" parent="1">
                    <mxGeometry x="50" y="280" width="1460" height="790" as="geometry"/>
                </mxCell>
                <mxCell id="88" value="alt" style="shape=umlFrame;whiteSpace=wrap;html=1;" vertex="1" parent="1">
                    <mxGeometry x="60" y="610" width="1440" height="450" as="geometry"/>
                </mxCell>
                <mxCell id="40" value="inCity()" style="edgeStyle=none;html=1;endArrow=open;endFill=0;endSize=8;" edge="1" parent="1" source="2" target="16">
                    <mxGeometry relative="1" as="geometry">
                        <Array as="points">
                            <mxPoint x="170" y="160"/>
                        </Array>
                    </mxGeometry>
                </mxCell>
                <mxCell id="82" value="onVehicleSelect()" style="edgeStyle=none;html=1;endArrow=open;endFill=0;endSize=8;" edge="1" parent="1" source="2" target="18">
                    <mxGeometry relative="1" as="geometry">
                        <Array as="points">
                            <mxPoint x="310" y="520"/>
                        </Array>
                    </mxGeometry>
                </mxCell>
                <mxCell id="2" value="Πελάτης" style="shape=umlLifeline;participant=umlActor;perimeter=lifelinePerimeter;whiteSpace=wrap;html=1;container=1;collapsible=0;recursiveResize=0;verticalAlign=top;spacingTop=36;outlineConnect=0;" vertex="1" parent="1">
                    <mxGeometry x="120" y="70" width="20" height="960" as="geometry"/>
                </mxCell>
                <mxCell id="3" value="Αρχική Οθόνη" style="shape=umlBoundary;whiteSpace=wrap;html=1;" vertex="1" parent="1">
                    <mxGeometry x="260" y="-70" width="90" height="70" as="geometry"/>
                </mxCell>
                <mxCell id="4" value="Wallet" style="ellipse;shape=umlEntity;whiteSpace=wrap;html=1;" vertex="1" parent="1">
                    <mxGeometry x="400" y="-70" width="70" height="70" as="geometry"/>
                </mxCell>
                <mxCell id="5" value="Οθόνη &quot;Εντός Πόλης&quot;" style="shape=umlBoundary;whiteSpace=wrap;html=1;" vertex="1" parent="1">
                    <mxGeometry x="520" y="-70" width="90" height="70" as="geometry"/>
                </mxCell>
                <mxCell id="6" value="In City Transport" style="ellipse;shape=umlEntity;whiteSpace=wrap;html=1;fillColor=default;strokeColor=default;strokeWidth=1;" vertex="1" parent="1">
                    <mxGeometry x="640" y="-70" width="70" height="70" as="geometry"/>
                </mxCell>
                <mxCell id="7" value="Customer" style="ellipse;shape=umlEntity;whiteSpace=wrap;html=1;fillColor=none;strokeColor=#b85450;strokeWidth=2;" vertex="1" parent="1">
                    <mxGeometry x="760" y="-70" width="70" height="70" as="geometry"/>
                </mxCell>
                <mxCell id="8" value="Σελίδα Επιλεγμένου Μέσου" style="shape=umlBoundary;whiteSpace=wrap;html=1;" vertex="1" parent="1">
                    <mxGeometry x="880" y="-70" width="90" height="70" as="geometry"/>
                </mxCell>
                <mxCell id="10" value="Αρχική Οθόνη" style="shape=umlBoundary;whiteSpace=wrap;html=1;fillColor=none;strokeColor=#b85450;strokeWidth=2;" vertex="1" parent="1">
                    <mxGeometry x="1360" y="-70" width="90" height="70" as="geometry"/>
                </mxCell>
                <mxCell id="11" value="Υπηρεσία Χάρτη" style="shape=umlActor;verticalLabelPosition=bottom;verticalAlign=top;html=1;" vertex="1" parent="1">
                    <mxGeometry x="1600" y="-60" width="30" height="60" as="geometry"/>
                </mxCell>
                <mxCell id="12" value="Χάρτης με οχήματα" style="shape=umlBoundary;whiteSpace=wrap;html=1;" vertex="1" parent="1">
                    <mxGeometry x="1000" y="-70" width="90" height="70" as="geometry"/>
                </mxCell>
                <mxCell id="13" value="Οθόνη πληροφοριών οχήματος" style="shape=umlBoundary;whiteSpace=wrap;html=1;" vertex="1" parent="1">
                    <mxGeometry x="1120" y="-70" width="90" height="70" as="geometry"/>
                </mxCell>
                <mxCell id="14" value="Βάση Δεδομένων" style="ellipse;shape=umlEntity;whiteSpace=wrap;html=1;" vertex="1" parent="1">
                    <mxGeometry x="1240" y="-70" width="70" height="70" as="geometry"/>
                </mxCell>
                <mxCell id="15" value="Οθόνη &quot;Ξεκλείδωμα Οχήματος&quot;" style="shape=umlBoundary;whiteSpace=wrap;html=1;" vertex="1" parent="1">
                    <mxGeometry x="1480" y="-70" width="90" height="70" as="geometry"/>
                </mxCell>
                <mxCell id="41" value="isOverdrawn()" style="edgeStyle=none;html=1;endArrow=open;endFill=0;endSize=8;" edge="1" parent="1" source="16" target="17">
                    <mxGeometry relative="1" as="geometry">
                        <Array as="points">
                            <mxPoint x="330" y="200"/>
                        </Array>
                    </mxGeometry>
                </mxCell>
                <mxCell id="69" value="display()" style="edgeStyle=none;html=1;endArrow=open;endFill=0;endSize=8;" edge="1" parent="1" source="16" target="18">
                    <mxGeometry relative="1" as="geometry">
                        <Array as="points">
                            <mxPoint x="330" y="480"/>
                        </Array>
                    </mxGeometry>
                </mxCell>
                <mxCell id="16" value=":MainScreen" style="shape=umlLifeline;perimeter=lifelinePerimeter;whiteSpace=wrap;html=1;container=1;collapsible=0;recursiveResize=0;outlineConnect=0;" vertex="1" parent="1">
                    <mxGeometry x="200" y="80" width="100" height="950" as="geometry"/>
                </mxCell>
                <mxCell id="73" value="" style="html=1;points=[];perimeter=orthogonalPerimeter;" vertex="1" parent="16">
                    <mxGeometry x="45" y="80" width="10" height="500" as="geometry"/>
                </mxCell>
                <mxCell id="74" value="" style="html=1;points=[];perimeter=orthogonalPerimeter;" vertex="1" parent="16">
                    <mxGeometry x="50" y="239" width="10" height="40" as="geometry"/>
                </mxCell>
                <mxCell id="75" value="displayErrorMsg(msg)" style="edgeStyle=orthogonalEdgeStyle;html=1;align=left;spacingLeft=2;endArrow=block;rounded=0;entryX=1;entryY=0;endSize=8;" edge="1" target="74" parent="16">
                    <mxGeometry relative="1" as="geometry">
                        <mxPoint x="55" y="219" as="sourcePoint"/>
                        <Array as="points">
                            <mxPoint x="85" y="219"/>
                        </Array>
                    </mxGeometry>
                </mxCell>
                <mxCell id="76" value="" style="html=1;points=[];perimeter=orthogonalPerimeter;" vertex="1" parent="16">
                    <mxGeometry x="50" y="310" width="10" height="40" as="geometry"/>
                </mxCell>
                <mxCell id="77" value="setVehicleOptionEnabled(false)" style="edgeStyle=orthogonalEdgeStyle;html=1;align=left;spacingLeft=2;endArrow=block;rounded=0;entryX=1;entryY=0;endSize=8;" edge="1" target="76" parent="16">
                    <mxGeometry relative="1" as="geometry">
                        <mxPoint x="55" y="290" as="sourcePoint"/>
                        <Array as="points">
                            <mxPoint x="85" y="290"/>
                        </Array>
                    </mxGeometry>
                </mxCell>
                <mxCell id="47" value="overdrawn" style="edgeStyle=none;html=1;dashed=1;endArrow=open;endFill=0;endSize=8;" edge="1" parent="1" source="17">
                    <mxGeometry relative="1" as="geometry">
                        <mxPoint x="250" y="240" as="targetPoint"/>
                        <Array as="points">
                            <mxPoint x="330" y="240"/>
                        </Array>
                    </mxGeometry>
                </mxCell>
                <mxCell id="85" value="requiresLicense()" style="edgeStyle=none;html=1;endArrow=open;endFill=0;endSize=8;" edge="1" parent="1" source="18" target="19">
                    <mxGeometry relative="1" as="geometry">
                        <Array as="points">
                            <mxPoint x="560" y="550"/>
                        </Array>
                    </mxGeometry>
                </mxCell>
                <mxCell id="18" value=":InCityScreen" style="shape=umlLifeline;perimeter=lifelinePerimeter;whiteSpace=wrap;html=1;container=1;collapsible=0;recursiveResize=0;outlineConnect=0;" vertex="1" parent="1">
                    <mxGeometry x="440" y="80" width="100" height="960" as="geometry"/>
                </mxCell>
                <mxCell id="83" value="" style="html=1;points=[];perimeter=orthogonalPerimeter;" vertex="1" parent="18">
                    <mxGeometry x="45" y="400" width="10" height="180" as="geometry"/>
                </mxCell>
                <mxCell id="86" style="edgeStyle=none;html=1;endArrow=open;endFill=0;endSize=8;dashed=1;" edge="1" parent="1" source="19">
                    <mxGeometry relative="1" as="geometry">
                        <mxPoint x="490" y="590" as="targetPoint"/>
                        <Array as="points">
                            <mxPoint x="560" y="590"/>
                        </Array>
                    </mxGeometry>
                </mxCell>
                <mxCell id="87" value="requiresLicense" style="edgeLabel;html=1;align=center;verticalAlign=middle;resizable=0;points=[];" vertex="1" connectable="0" parent="86">
                    <mxGeometry x="-0.0736" y="-1" relative="1" as="geometry">
                        <mxPoint as="offset"/>
                    </mxGeometry>
                </mxCell>
                <mxCell id="19" value="selectedVehicle&lt;br&gt;:InCityTransport" style="shape=umlLifeline;perimeter=lifelinePerimeter;whiteSpace=wrap;html=1;container=1;collapsible=0;recursiveResize=0;outlineConnect=0;" vertex="1" parent="1">
                    <mxGeometry x="560" y="80" width="100" height="960" as="geometry"/>
                </mxCell>
                <mxCell id="28" value="" style="html=1;points=[];perimeter=orthogonalPerimeter;" vertex="1" parent="19">
                    <mxGeometry x="45" y="470" width="10" height="40" as="geometry"/>
                </mxCell>
                <mxCell id="20" value=":Customer" style="shape=umlLifeline;perimeter=lifelinePerimeter;whiteSpace=wrap;html=1;container=1;collapsible=0;recursiveResize=0;outlineConnect=0;" vertex="1" parent="1">
                    <mxGeometry x="680" y="80" width="100" height="960" as="geometry"/>
                </mxCell>
                <mxCell id="21" value=":InCityVehicleScreen" style="shape=umlLifeline;perimeter=lifelinePerimeter;whiteSpace=wrap;html=1;container=1;collapsible=0;recursiveResize=0;outlineConnect=0;" vertex="1" parent="1">
                    <mxGeometry x="800" y="80" width="100" height="960" as="geometry"/>
                </mxCell>
                <mxCell id="22" value=":Map" style="shape=umlLifeline;perimeter=lifelinePerimeter;whiteSpace=wrap;html=1;container=1;collapsible=0;recursiveResize=0;outlineConnect=0;" vertex="1" parent="1">
                    <mxGeometry x="920" y="80" width="100" height="950" as="geometry"/>
                </mxCell>
                <mxCell id="23" value=":InCityVehicleInfoScreen" style="shape=umlLifeline;perimeter=lifelinePerimeter;whiteSpace=wrap;html=1;container=1;collapsible=0;recursiveResize=0;outlineConnect=0;" vertex="1" parent="1">
                    <mxGeometry x="1040" y="80" width="100" height="960" as="geometry"/>
                </mxCell>
                <mxCell id="24" value=":Database" style="shape=umlLifeline;perimeter=lifelinePerimeter;whiteSpace=wrap;html=1;container=1;collapsible=0;recursiveResize=0;outlineConnect=0;" vertex="1" parent="1">
                    <mxGeometry x="1160" y="80" width="100" height="960" as="geometry"/>
                </mxCell>
                <mxCell id="26" value="Υπηρεσία Χάρτη" style="shape=umlLifeline;participant=umlActor;perimeter=lifelinePerimeter;whiteSpace=wrap;html=1;container=1;collapsible=0;recursiveResize=0;verticalAlign=top;spacingTop=36;outlineConnect=0;" vertex="1" parent="1">
                    <mxGeometry x="1310" y="70" width="20" height="960" as="geometry"/>
                </mxCell>
                <mxCell id="29" value="" style="html=1;verticalAlign=bottom;endArrow=block;endSize=8;" edge="1" parent="1">
                    <mxGeometry width="80" relative="1" as="geometry">
                        <mxPoint x="110" y="10" as="sourcePoint"/>
                        <mxPoint x="160" y="10" as="targetPoint"/>
                    </mxGeometry>
                </mxCell>
                <mxCell id="34" value="" style="endArrow=open;endFill=1;endSize=8;html=1;" edge="1" parent="1">
                    <mxGeometry width="160" relative="1" as="geometry">
                        <mxPoint x="110.000909090909" y="-20" as="sourcePoint"/>
                        <mxPoint x="160.41" y="-20" as="targetPoint"/>
                    </mxGeometry>
                </mxCell>
                <mxCell id="58" value="[overdrawn == False]" style="text;html=1;align=center;verticalAlign=middle;resizable=0;points=[];autosize=1;strokeColor=none;fillColor=none;" vertex="1" parent="1">
                    <mxGeometry x="50" y="445" width="140" height="30" as="geometry"/>
                </mxCell>
                <mxCell id="59" value="[overdrawn == True]" style="text;html=1;align=center;verticalAlign=middle;resizable=0;points=[];autosize=1;strokeColor=none;fillColor=none;" vertex="1" parent="1">
                    <mxGeometry x="50" y="310" width="130" height="30" as="geometry"/>
                </mxCell>
                <mxCell id="50" value="" style="line;strokeWidth=1;fillColor=none;align=left;verticalAlign=middle;spacingTop=-1;spacingLeft=3;spacingRight=3;rotatable=0;labelPosition=right;points=[];portConstraint=eastwest;strokeColor=inherit;" vertex="1" parent="1">
                    <mxGeometry x="50" y="440" width="590" height="8" as="geometry"/>
                </mxCell>
                <mxCell id="89" value="[requiresLicense == True]" style="text;html=1;align=center;verticalAlign=middle;resizable=0;points=[];autosize=1;strokeColor=none;fillColor=none;" vertex="1" parent="1">
                    <mxGeometry x="60" y="640" width="160" height="30" as="geometry"/>
                </mxCell>
                <mxCell id="17" value=":Wallet" style="shape=umlLifeline;perimeter=lifelinePerimeter;whiteSpace=wrap;html=1;container=1;collapsible=0;recursiveResize=0;outlineConnect=0;" vertex="1" parent="1">
                    <mxGeometry x="320" y="80" width="100" height="960" as="geometry"/>
                </mxCell>
                <mxCell id="42" value="" style="html=1;points=[];perimeter=orthogonalPerimeter;" vertex="1" parent="17">
                    <mxGeometry x="45" y="120" width="10" height="40" as="geometry"/>
                </mxCell>
            </root>
        </mxGraphModel>
    </diagram>
</mxfile>